<svg xmlns="http://www.w3.org/2000/svg" width="32" height="32"><path d="M5.3 25l.7.4c.5.3 1.3.6 1.8.6h13.3c.6 0 1.4-.2 1.8-.6l.7-.4 2.3-2h-23l2.4 2zm19.7-15h-1v-3h-19v12c0 1.7 1.3 3 3 3h13c1.7 0 3-1.3 3-3v-1h1c1.7 0 3-1.3 3-3v-2c0-1.7-1.3-3-3-3zm-8.3 6c-.6.6-1.3 1.3-2 2.2l-.2.3-.2-.3c-.6-.8-1.3-1.5-2-2.2-1-1-1.8-1.8-1.8-2.7 0-1.3 1.1-2.4 2.4-2.4.6 0 1.2.3 1.6.8.5-.5 1-.8 1.7-.8 1.3 0 2.4 1.1 2.4 2.4-.1.9-.9 1.7-1.9 2.7zm9.3-1c0 .6-.4 1-1 1h-1v-4h1c.6 0 1 .4 1 1v2z"/><path opacity=".3" d="M16.7 16c-.6.6-1.3 1.3-2 2.2l-.2.3-.2-.3c-.6-.8-1.3-1.5-2-2.2-1-1-1.8-1.8-1.8-2.7 0-1.3 1.1-2.4 2.4-2.4.6 0 1.2.3 1.6.8.5-.5 1-.8 1.7-.8 1.3 0 2.4 1.1 2.4 2.4-.1.9-.9 1.7-1.9 2.7z"/></svg>