<svg xmlns="http://www.w3.org/2000/svg" width="32" height="32"><circle cx="16" cy="16" r="11" fill="#fff" fill-opacity=".9"/><path d="M16 3.8c-6.8 0-12.2 5.5-12.2 12.2s5.5 12.2 12.2 12.2c6.8 0 12.2-5.5 12.2-12.2s-5.4-12.2-12.2-12.2zm0 21.2c-5 0-9-4-9-9s4-9 9-9 9 4 9 9-4 9-9 9zm5.6-11.8l-2.8 2.8 2.8 2.8c.2.2.2.5 0 .7l-2.1 2.1c-.2.2-.5.2-.7 0l-2.8-2.8-2.8 2.8c-.2.2-.5.2-.7 0l-2.1-2.1c-.2-.2-.2-.5 0-.7l2.8-2.8-2.8-2.8c-.2-.2-.2-.5 0-.7l2.1-2.1c.2-.2.5-.2.7 0l2.8 2.8 2.8-2.8c.2-.2.5-.2.7 0l2.1 2.1c.2.1.2.5 0 .7z"/></svg>
