<svg xmlns="http://www.w3.org/2000/svg" width="32" height="32"><path d="M19.9 17.8l6.4 5.9c.2.2.2.5 0 .7l-3.5 3.5c-.2.2-.5.2-.7 0l-5.8-6.4 3.6-3.7zm-12.6-6.3c.3 0 .7.1.9.3l3 3 1.9-1.8-3.1-3c-.2-.2-.3-.6-.3-.9v-.5c0-.3-.2-.6-.4-.8l-2.8-1.8c-.2-.2-.6-.1-.8.1l-1.4 1.4c-.2.2-.2.5-.1.8l1.8 2.8c.2.2.5.4.8.4h.5zm20.3-1.5l-4.8 2.4-2.8-4.4 5-2.7c-1.9-1.4-4-1.2-5.9-.2-2.5 1.4-3.6 4.3-2.7 6.8l-11.5 11.5c-.4.4-.4 1 0 1.4l2.1 2.1c.4.4 1 .4 1.4 0l1.4-1.4 10-10c1.5.5 3.3.4 4.9-.4 1.9-1 3.1-2.7 2.9-5.1z"/></svg>
